<?xml version="1.0" encoding="iso-8859-1"?>
<!-- Generator: Adobe Illustrator 19.0.0, SVG Export Plug-In . SVG Version: 6.00 Build 0)  -->
<svg version="1.1" id="Capa_1" xmlns="http://www.w3.org/2000/svg" xmlns:xlink="http://www.w3.org/1999/xlink" x="0px" y="0px"
	 viewBox="0 0 512 512" style="enable-background:new 0 0 512 512;" xml:space="preserve">
<polygon style="fill:#BE40FF;" points="443.213,0 256,0 196,256 256,512 512,512 512,68.787 "/>
<rect style="fill:#CD6EFF;" width="256" height="512"/>
<polygon style="fill:#CED0CE;" points="351,225 196,368.5 256,512 452,512 452,225 "/>
<polygon style="fill:#D2ECFD;" points="60,225 60,512 256,512 256,255 161,225 "/>
<polygon style="fill:#203F49;" points="351,330.787 351,225 256,225 226,330.787 256,467 392.213,330.787 "/>
<polygon style="fill:#2B5C74;" points="161,225 161,330.787 119.787,330.787 256,467 256,225 "/>
<polygon style="fill:#203F49;" points="392,0 317,0 287,91 317,182 392,182 "/>
<polygon style="fill:#3E575F;" points="256,0 226,91 256,182 317,182 317,0 "/>
<rect x="120" style="fill:#5C6F74;" width="136" height="182"/>
<g>
</g>
<g>
</g>
<g>
</g>
<g>
</g>
<g>
</g>
<g>
</g>
<g>
</g>
<g>
</g>
<g>
</g>
<g>
</g>
<g>
</g>
<g>
</g>
<g>
</g>
<g>
</g>
<g>
</g>
</svg>
